<?xml version="1.0" encoding="UTF-8"?>
<!DOCTYPE svg PUBLIC "-//W3C//DTD SVG 1.1//EN" "http://www.w3.org/Graphics/SVG/1.1/DTD/svg11.dtd">
<!-- Creator: CorelDRAW 2020 (64-Bit) -->
<svg xmlns="http://www.w3.org/2000/svg" xml:space="preserve" width="75px" height="55px" version="1.1" style="shape-rendering:geometricPrecision; text-rendering:geometricPrecision; image-rendering:optimizeQuality; fill-rule:evenodd; clip-rule:evenodd"
viewBox="0 0 322 236"
 xmlns:xlink="http://www.w3.org/1999/xlink"
 xmlns:xodm="http://www.corel.com/coreldraw/odm/2003">
 <defs>
  <style type="text/css">
   <![CDATA[
    .fil0 {fill:#B6782B}
   ]]>
  </style>
 </defs>
 <g id="Layer_x0020_1">
  <metadata id="CorelCorpID_0Corel-Layer"/>
  <g id="_2590977185424">
   <path class="fil0" d="M0 0l0 142 67 0c-3,13 -38,78 -46,94l75 0c7,-29 38,-69 42,-95 4,-32 0,-104 0,-141l-138 0z"/>
   <path class="fil0" d="M322 0l-138 0 0 142 67 0c-3,13 -38,78 -46,94l76 0c6,-29 38,-69 41,-95 0,0 0,-1 0,-2l0 -139z"/>
  </g>
 </g>
</svg>
