<?xml version="1.0" encoding="UTF-8"?>
<!DOCTYPE svg PUBLIC "-//W3C//DTD SVG 1.1//EN" "http://www.w3.org/Graphics/SVG/1.1/DTD/svg11.dtd">
<!-- Creator: CorelDRAW 2020 (64-Bit) -->
<svg xmlns="http://www.w3.org/2000/svg" xml:space="preserve" width="150px" height="60px" version="1.1" style="shape-rendering:geometricPrecision; text-rendering:geometricPrecision; image-rendering:optimizeQuality; fill-rule:evenodd; clip-rule:evenodd"
viewBox="0 0 1787 715"
 xmlns:xlink="http://www.w3.org/1999/xlink"
 xmlns:xodm="http://www.corel.com/coreldraw/odm/2003">
 <defs>
  <style type="text/css">
   <![CDATA[
    .fil2 {fill:none}
    .fil0 {fill:#D7823D;fill-rule:nonzero}
    .fil1 {fill:#603F23;fill-rule:nonzero}
   ]]>
  </style>
 </defs>
 <g id="Layer_x0020_1">
  <metadata id="CorelCorpID_0Corel-Layer"/>
  <g id="_1981667136720">
   <path class="fil0" d="M74 271c6,-9 8,-14 12,-19 30,-45 66,-86 107,-121 23,-20 48,-37 77,-48 13,-4 25,-10 39,-5 6,18 6,18 2,37 -2,8 -4,17 -4,26 -1,14 13,23 23,18 15,-10 31,-55 20,-72 -10,-19 -23,-33 -38,-47 -21,-19 -45,-23 -71,-18 -39,9 -72,28 -102,54 -4,3 -9,8 -13,12 0,1 2,2 2,4 15,-8 29,-15 42,-23 -1,6 -3,8 -6,10 -46,33 -86,74 -120,120 -14,18 -24,39 -35,61 -3,5 -3,15 0,21 10,21 52,44 73,41 19,-4 36,-10 53,-15 36,-10 72,-22 108,-31 18,-4 37,-9 60,-3 0,8 2,17 0,25 -6,17 -11,35 -21,49 -55,82 -132,123 -225,140 -13,3 -28,3 -38,-11 -4,-4 -11,-5 -15,-8 -8,13 -2,22 5,28 23,25 52,37 86,33 71,-9 135,-35 188,-88 25,-26 47,-56 58,-91 21,-71 -36,-122 -84,-115 -11,0 -21,0 -31,2 -42,9 -85,19 -127,28 -7,2 -13,4 -25,6zm138 -219c-7,4 -15,7 -27,13 12,-14 12,-14 27,-12 1,-3 0,-7 1,-7 23,-11 46,-19 73,-12 -26,6 -50,12 -74,18zm285 289c14,-26 -10,-22 -14,-13 -9,19 -24,48 -36,70 -7,13 -28,30 -26,1 1,-23 3,-53 6,-76 0,-4 -4,-16 -4,-13 -6,22 -8,56 -10,74 -2,20 -8,9 4,-75 2,-13 -36,0 -40,9 -8,26 -10,60 -6,88 3,40 39,55 75,21 20,-17 40,-62 51,-86zm-76 -104c-27,-15 -40,11 -27,27 23,7 39,-4 27,-27zm179 304c1,8 2,15 2,23 -2,0 -3,0 -5,0 2,-8 3,-15 4,-22 0,-10 0,-19 -1,-29 0,-53 0,-106 0,-158 0,-13 0,-26 -10,-38 -28,2 -34,30 -59,40 4,-12 5,-21 8,-30 14,-31 26,-59 64,-36 4,3 8,4 11,4 3,-12 -5,-22 -15,-28 -43,-30 -117,32 -133,74 -3,9 -5,18 -4,28 1,14 8,23 20,29 14,6 25,2 35,-5 9,-6 19,-12 31,-20 0,8 2,12 0,16 0,57 -1,112 -5,169 -2,32 -4,65 -25,94 -4,-4 -8,-8 -9,-13 -3,-17 -8,-36 -6,-54 4,-31 14,-61 22,-93 4,-14 10,-29 14,-44 -10,6 -16,13 -19,22 -16,35 -31,70 -44,106 -9,27 -17,55 -8,84 2,9 8,18 14,26 14,13 30,12 44,-3 6,-7 13,-12 19,-19 28,-26 53,-54 61,-90 6,-26 11,-53 13,-80 0,-41 -2,-84 -2,-126 0,-6 -2,-11 -3,-17 -3,15 -3,29 -3,44 -2,42 -2,84 -2,126 -1,7 -6,14 -9,20zm-74 -204c-4,14 -5,22 -5,33 -11,-11 -7,-11 5,-33zm259 3c-2,24 11,60 20,74 16,27 35,27 63,13 21,-11 68,-70 80,-100 -11,-22 -24,-7 -34,7 -11,15 -22,34 -34,49 -20,27 -33,34 -44,-1 -5,-15 -8,-29 -8,-48 0,-28 -7,-35 -31,-34 -18,3 -33,12 -47,27 -20,19 -38,40 -59,65 2,-41 6,-75 8,-109 0,-8 0,-19 -4,-23 -3,-4 -9,-6 -17,1 -2,-5 -6,-11 -7,-15 -6,6 -15,10 -16,15 -7,35 -14,70 -16,105 -3,48 16,79 69,71 19,-36 44,-69 77,-97zm15 -6c0,7 8,46 9,53 -2,-1 -2,0 -3,0 -1,-9 -10,-46 -11,-53 1,0 3,0 5,0zm-95 55c3,-5 34,-40 38,-42 0,0 0,1 0,2 -3,3 -33,40 -35,42 0,-1 -1,-2 -3,-2zm316 -5c14,25 38,32 59,17 7,-5 13,-11 17,-17 20,-23 26,-30 45,-52 3,-4 5,-8 8,-13 -19,-4 -21,-4 -30,7 -19,19 -24,23 -43,43 -3,3 -7,5 -13,10 0,-8 -1,-13 0,-17 4,-22 8,-43 12,-64 5,-20 5,-20 -15,-21 -6,0 -13,-2 -19,-6 -36,-25 -93,-15 -118,23 -30,42 -29,88 -15,135 1,5 5,9 8,14 7,9 16,13 28,12 18,-1 34,-7 45,-24 10,-15 19,-30 31,-47zm-68 32c-7,-42 -5,-83 22,-120 3,-3 6,-6 9,-8 13,-13 18,-13 30,0 5,6 11,12 18,19 -23,37 -48,75 -73,112 -2,-1 -4,-2 -6,-3zm206 -227c-1,8 -8,48 -10,53 -1,4 -4,8 -5,-1 0,-9 7,-33 7,-44 0,-8 -4,-5 -5,-2 -17,57 -29,162 -25,221 1,12 4,24 10,35 10,22 40,23 54,2 4,-5 7,-12 10,-18l42 -103c3,-7 1,-17 -9,-20 -14,26 -59,139 -65,113 0,-91 12,-148 27,-243 54,-6 124,-17 176,-23 26,-3 53,-4 81,-5 -4,-15 -13,-19 -26,-19 -41,1 -81,1 -122,3 -30,2 -60,7 -90,11 -15,1 -16,0 -19,-15l-11 -42c-12,16 -18,48 -21,65 -20,3 -52,11 -67,14 -24,6 -49,11 -73,18 -6,2 -12,6 -18,10 11,18 11,18 28,14 36,-8 72,-16 109,-24 6,-1 13,0 22,0zm114 107c1,-3 -7,-7 -19,-8 -20,-3 -25,-2 -32,19 -5,23 -11,48 -11,71 -2,26 8,50 31,61 11,5 28,2 40,-2 36,-13 59,-63 81,-105 -7,31 -6,128 50,104 30,-13 68,-75 74,-102 0,-17 -13,-21 -22,-8 -8,10 -20,44 -33,63 -10,14 -17,22 -23,21 -15,-3 -12,-79 -11,-90 2,-18 -5,-28 -19,-34 -13,-7 -29,-2 -37,9 -22,33 -29,70 -53,104 -23,30 -34,10 -32,-26 1,-26 10,-58 16,-77zm290 4c2,1 3,1 6,2 0,11 1,22 2,31 0,12 12,24 25,31 2,-38 0,-76 1,-115 -5,1 -20,0 -22,1 -25,25 -58,87 -73,118 -2,0 -4,0 -5,-1 3,-25 6,-51 9,-76 -22,-5 -28,0 -36,18 0,2 -2,6 -2,9 -8,35 -13,72 -10,109 1,9 4,19 6,31 7,0 14,1 19,-1 4,-1 10,-6 10,-11 3,-36 38,-95 55,-125 4,-7 10,-13 15,-21zm213 53c8,-13 23,-49 -4,-22 -36,52 -91,103 -105,77 -5,-11 -7,-30 -7,-42 27,-7 94,-89 42,-109 -31,-7 -59,6 -74,40 -19,41 -33,139 33,148 48,5 94,-54 115,-92zm-89 -78c6,-8 12,-7 15,-2 8,18 -27,57 -39,74 1,-32 5,-47 24,-72z"/>
   <path class="fil1" d="M505 77c-1,1 -2,4 -4,7 -1,2 -2,4 -3,6 0,1 -1,1 -1,1 0,0 -2,-1 -7,-2 -5,-2 -9,-3 -12,-3 -9,0 -14,4 -14,12 0,4 4,8 10,11 11,6 16,9 18,10 6,5 9,12 9,20 0,11 -4,20 -13,26 -8,6 -17,9 -29,9 -5,0 -8,-1 -8,-2 -1,-2 -1,-5 -2,-8 0,-2 -1,-4 -1,-7 -1,0 -1,-1 -1,-1 0,-1 1,-1 1,-1 2,0 3,0 6,0 2,0 4,1 5,1 16,0 23,-5 23,-15 0,-5 -3,-9 -9,-13 -11,-6 -17,-9 -17,-9 -6,-5 -9,-12 -9,-21 0,-9 3,-16 9,-21 5,-6 13,-8 22,-8 4,0 9,0 14,2 5,1 9,3 12,5 0,0 1,0 1,1zm31 94c0,1 0,1 -2,1 -1,0 -2,0 -4,0 -2,0 -3,0 -4,0 -1,0 -2,0 -4,0 -2,0 -3,0 -4,0 -1,0 -2,0 -2,-2 0,-5 1,-14 1,-25 1,-11 1,-19 1,-25 0,-5 0,-14 -1,-25 0,-10 -1,-19 -1,-24 0,-1 1,-2 2,-2 1,0 2,0 4,0 2,1 4,1 5,1 0,0 2,0 4,-1 1,0 3,0 4,0 1,0 1,1 1,2 0,5 0,13 0,24 -1,11 -1,19 -1,25 0,6 0,14 1,25 0,12 0,20 0,26zm106 -2c0,1 -1,1 -2,1 -1,0 -3,0 -5,-2 -3,-1 -5,-2 -6,-3 -9,6 -20,9 -32,9 -14,0 -26,-5 -35,-16 -9,-10 -14,-22 -14,-37 0,-15 5,-28 13,-38 10,-11 22,-16 36,-16 8,0 15,2 22,5 7,4 13,9 17,15 0,1 1,2 1,2 0,1 -2,3 -6,7 -3,4 -5,6 -6,6 0,0 -2,-2 -4,-5 -3,-3 -6,-6 -9,-8 -5,-3 -9,-5 -14,-5 -9,0 -17,4 -23,12 -5,7 -8,15 -8,25 0,9 3,18 8,25 6,8 14,11 23,11 9,0 17,-2 25,-7 0,-1 -1,-6 -2,-14 0,-6 0,-10 0,-14 0,-1 0,-1 1,-1 1,0 3,0 4,0 2,0 4,0 5,0 1,0 2,0 4,0 2,0 3,0 4,0 1,0 2,1 2,2 0,2 0,5 -1,8 0,4 0,6 0,8 0,7 1,17 2,29l0 1zm104 -98c0,5 -1,14 -1,25 0,12 -1,20 -1,26 0,5 0,13 1,24 0,10 0,18 0,24 0,1 -1,2 -2,2 -1,0 -2,0 -3,0 -2,0 -3,0 -4,0 -1,0 -2,0 -3,0 -2,0 -3,0 -4,0 -1,0 -2,-1 -3,-2 -11,-14 -27,-36 -48,-64 -3,-4 -5,-7 -6,-7 0,0 -1,1 -1,3 0,7 1,19 1,34 0,15 0,26 0,34 0,1 0,2 -1,2 -1,0 -2,0 -4,0 -2,0 -3,0 -4,0 -1,0 -2,0 -4,0 -2,0 -3,0 -4,0 -1,0 -2,0 -2,-1 0,-6 1,-14 1,-25 1,-10 1,-19 1,-24 0,-6 0,-17 -1,-32 0,-4 0,-10 -1,-18l0 -1c0,-1 1,-1 2,-1 3,0 6,0 8,-1 0,0 2,0 4,0 1,0 2,-1 3,-1 1,0 2,1 3,3 11,15 28,38 51,69 1,1 2,2 3,3 0,-2 1,-7 1,-14 0,-7 -1,-16 -1,-29 -1,-13 -1,-22 -1,-28 0,-2 1,-3 2,-3 1,0 2,0 4,0 2,1 3,1 4,1 1,0 2,0 4,-1 2,0 3,0 4,0 1,0 2,1 2,2zm35 100c0,1 0,1 -2,1 -1,0 -2,0 -4,0 -2,0 -3,0 -4,0 -1,0 -2,0 -4,0 -2,0 -3,0 -4,0 -1,0 -2,0 -2,-2 0,-5 0,-14 1,-25 0,-11 1,-19 1,-25 0,-5 -1,-14 -1,-25 -1,-10 -1,-19 -1,-24 0,-1 1,-2 2,-2 1,0 2,0 4,0 2,1 4,1 5,1 0,0 2,0 3,-1 2,0 4,0 4,0 2,0 2,1 2,2 0,5 0,13 0,24 -1,11 -1,19 -1,25 0,6 0,14 1,25 0,12 0,20 0,26zm86 -87c0,1 0,2 -1,2 -4,0 -10,-1 -19,-1 -8,0 -14,-1 -19,0l-5 0c-4,0 -5,0 -6,0 -1,0 -1,2 -1,5l0 17c0,4 1,5 2,5 5,0 12,0 22,0 9,-1 16,-1 21,-1 1,0 2,0 2,1 0,1 0,2 -1,4 0,1 0,3 0,3 0,1 0,3 0,5 0,1 1,3 1,4 0,0 -1,0 -2,0 -3,0 -9,0 -15,0 -7,0 -12,0 -16,0 -6,0 -10,0 -11,0 -2,0 -3,1 -3,3 0,4 0,11 0,19 1,9 1,16 1,20 0,2 -1,2 -2,2 -1,0 -2,0 -4,0 -2,0 -4,0 -5,0 -1,0 -2,0 -4,0 -1,0 -3,0 -3,0 -2,0 -2,0 -2,-1 0,-6 0,-14 1,-25 0,-11 0,-19 0,-24 0,-6 0,-22 -1,-50l0 -1c0,-1 0,-1 2,-1 0,0 3,0 9,0 8,0 15,0 21,0 9,0 20,-1 34,-2 2,0 3,1 3,3 0,1 0,3 0,6 1,4 1,6 1,7zm100 88c0,0 -1,0 -2,0 -1,0 -2,0 -4,0 -2,0 -3,0 -4,0 -1,0 -2,0 -4,0 -2,0 -3,0 -4,0 -2,0 -3,-4 -5,-11 -3,-7 -5,-11 -7,-11 -2,0 -6,0 -14,0l-11 0c-8,0 -13,0 -14,0 -2,0 -4,4 -6,11 -2,7 -4,11 -5,11l-16 0c-1,0 -2,0 -2,-1 0,0 1,-2 1,-3l19 -49c1,-4 6,-16 14,-35 1,-3 3,-7 5,-14 1,-2 2,-3 2,-3 1,0 3,1 4,1 2,0 4,0 5,0 1,0 2,0 4,0 1,-1 3,-1 4,-1 0,0 1,1 1,3 2,3 7,18 17,44 15,38 22,57 22,58zm-34 -41c0,-1 -3,-8 -7,-19 -4,-11 -7,-18 -8,-22 -10,26 -15,39 -15,41 0,1 2,2 5,3 0,0 3,0 7,0l8 0c7,0 10,-1 10,-3z"/>
  </g>
  <rect class="fil2" width="1787" height="715"/>
 </g>
</svg>
